


<?xml version="1.0" encoding="UTF-8"?>
<svg xmlns="http://www.w3.org/2000/svg" xmlns:xlink="http://www.w3.org/1999/xlink" width="240.75pt" height="141.750002pt" viewBox="0 0 240.75 141.750002" version="1.2">
<defs>
<clipPath id="clip1">
  <path d="M 0.0859375 0 L 240.414062 0 L 240.414062 141.5 L 0.0859375 141.5 Z M 0.0859375 0 "/>
</clipPath>
</defs>
<g id="surface1">
<g clip-path="url(#clip1)" clip-rule="nonzero">
<path style=" stroke:none;fill-rule:nonzero;fill:rgb(100%,100%,100%);fill-opacity:1;" d="M 0.0859375 0 L 240.664062 0 L 240.664062 148.390625 L 0.0859375 148.390625 Z M 0.0859375 0 "/>
<path style=" stroke:none;fill-rule:nonzero;fill:rgb(100%,100%,100%);fill-opacity:1;" d="M 0.0859375 0 L 240.664062 0 L 240.664062 141.648438 L 0.0859375 141.648438 Z M 0.0859375 0 "/>
</g>
<path style=" stroke:none;fill-rule:nonzero;fill:rgb(100%,100%,100%);fill-opacity:1;" d="M 59.734375 50.058594 L 54.652344 44.601562 L 49.6875 39.296875 C 49.75 36 49.835938 32.699219 49.882812 29.402344 C 49.886719 29.050781 49.601562 28.757812 49.25 28.75 L 49.226562 28.75 L 43.886719 28.664062 C 43.480469 28.65625 43.152344 28.976562 43.144531 29.378906 L 43.144531 29.402344 L 43.101562 31.984375 L 38.964844 27.609375 L 33.472656 21.769531 L 33.453125 21.75 C 33.035156 21.328125 32.355469 21.324219 31.929688 21.738281 L 31.898438 21.769531 C 29.601562 24.023438 27.289062 26.257812 25.035156 28.550781 C 22.777344 30.84375 20.5625 33.175781 18.382812 35.542969 C 17.28125 36.714844 16.203125 37.902344 15.121094 39.097656 C 14.035156 40.28125 12.972656 41.492188 11.902344 42.691406 C 9.773438 45.109375 7.667969 47.546875 5.636719 50.058594 C 5.601562 50.101562 5.601562 50.167969 5.640625 50.214844 C 5.683594 50.265625 5.761719 50.269531 5.8125 50.226562 C 8.277344 48.136719 10.664062 45.96875 13.03125 43.785156 C 14.207031 42.6875 15.390625 41.59375 16.550781 40.480469 C 17.714844 39.371094 18.882812 38.257812 20.027344 37.132812 C 22.339844 34.894531 24.617188 32.625 26.855469 30.316406 C 28.839844 28.273438 30.777344 26.183594 32.71875 24.097656 L 37.605469 28.925781 L 43.300781 34.570312 L 43.320312 34.589844 C 43.46875 34.738281 43.675781 34.828125 43.90625 34.824219 C 44.351562 34.816406 44.710938 34.449219 44.703125 34.003906 L 44.640625 30.128906 L 48.582031 30.0625 C 48.632812 33.199219 48.710938 36.335938 48.773438 39.472656 L 48.773438 39.492188 C 48.773438 39.597656 48.816406 39.707031 48.902344 39.789062 L 54.222656 45.015625 L 59.558594 50.226562 C 59.605469 50.273438 59.675781 50.273438 59.726562 50.230469 C 59.777344 50.183594 59.777344 50.105469 59.734375 50.058594 "/>
<path style=" stroke:none;fill-rule:nonzero;fill:rgb(100%,100%,100%);fill-opacity:1;" d="M 27.40625 44.554688 L 32.316406 44.554688 L 32.316406 39.667969 L 27.40625 39.667969 Z M 27.40625 44.554688 "/>
<path style=" stroke:none;fill-rule:nonzero;fill:rgb(100%,100%,100%);fill-opacity:1;" d="M 27.40625 50.144531 L 32.316406 50.144531 L 32.316406 45.257812 L 27.40625 45.257812 Z M 27.40625 50.144531 "/>
<path style=" stroke:none;fill-rule:nonzero;fill:rgb(100%,100%,100%);fill-opacity:1;" d="M 33.054688 50.144531 L 37.964844 50.144531 L 37.964844 45.257812 L 33.054688 45.257812 Z M 33.054688 50.144531 "/>
<path style=" stroke:none;fill-rule:nonzero;fill:rgb(100%,100%,100%);fill-opacity:1;" d="M 33.054688 44.554688 L 37.964844 44.554688 L 37.964844 39.667969 L 33.054688 39.667969 Z M 33.054688 44.554688 "/>
<path style=" stroke:none;fill-rule:nonzero;fill:rgb(100%,100%,100%);fill-opacity:1;" d="M 44.054688 38.511719 C 42.222656 36.574219 40.363281 34.667969 38.519531 32.75 L 32.949219 27.015625 L 32.941406 27.007812 C 32.792969 26.867188 32.5625 26.871094 32.421875 27.015625 L 26.851562 32.75 C 25.007812 34.667969 23.148438 36.578125 21.316406 38.511719 L 15.808594 44.300781 C 13.992188 46.25 12.15625 48.179688 10.351562 50.144531 C 12.273438 48.292969 14.160156 46.410156 16.066406 44.550781 L 21.722656 38.902344 C 23.613281 37.023438 25.476562 35.121094 27.351562 33.226562 L 32.683594 27.792969 L 38.019531 33.230469 C 39.894531 35.121094 41.757812 37.023438 43.648438 38.902344 L 49.304688 44.550781 C 51.210938 46.414062 53.097656 48.292969 55.019531 50.144531 C 53.214844 48.179688 51.382812 46.246094 49.5625 44.300781 L 44.054688 38.511719 "/>
</g>
</svg>